# xmcd
#
# Track frame offsets: 
#        150
#        15328
#        31132
#        42751
#        55756
#        67066
#        81161
#        94839
#        114356
#        125225
#        136846
#        149476
#
# Disc length: 2228 seconds
#
# Revision: 1
# Processed by: cddbd v1.5.1PL2 Copyright (c) Steve Scherf et al.
# Submitted via: ExactAudioCopy v0.95b4
#
DISCID=a008b20c
DTITLE=Johnny Cash - Hello I'm Johnny Cash
DYEAR=1970
DGENRE=Country
TTITLE0=Southwind
TTITLE1=The Devil to Pay
TTITLE2=Cause I Love You
TTITLE3=See Ruby Fall
TTITLE4=Route 1 Box 144
TTITLE5=Sing a Traveling Song
TTITLE6=If I Were a Carpenter
TTITLE7=To Beat the Devil
TTITLE8=Blistered
TTITLE9=Wrinkled Crinkled Wadded Dollar Bill
TTITLE10=I've Got a Thing About Trains
TTITLE11=Jesus Was a Carpenter
EXTD=CS 9943 - CBS LP  63796
EXTT0=
EXTT1=
EXTT2=
EXTT3=
EXTT4=
EXTT5=
EXTT6=
EXTT7=
EXTT8=
EXTT9=
EXTT10=
EXTT11=
PLAYORDER=
